# Blender v2.69 (sub 0) OBJ File: 'mobile.blend'
# www.blender.org
o Icosphere.001_Icosphere.004
v -1.800000 0.500000 -1.800000
v -1.576395 0.574673 -1.645494
v -1.885408 0.574673 -1.550002
v -1.419578 0.776390 -1.537137
v -1.352789 0.737132 -1.800000
v -2.076392 0.574674 -1.800000
v -1.885408 0.574673 -2.049998
v -1.576395 0.574673 -1.954506
v -1.300000 1.000000 -1.645494
v -1.945306 0.776390 -1.374675
v -1.661802 0.737131 -1.395494
v -1.800000 1.000000 -1.300000
v -2.270227 0.776392 -1.800000
v -2.161802 0.737132 -1.550002
v -2.300000 1.000000 -1.645494
v -1.945306 0.776390 -2.225325
v -2.161802 0.737132 -2.049999
v -2.109017 1.000000 -2.204508
v -1.419578 0.776390 -2.062863
v -1.661802 0.737131 -2.204506
v -1.490983 1.000000 -2.204508
v -1.490983 1.000000 -1.395492
v -2.109017 1.000000 -1.395492
v -2.300000 1.000000 -1.954506
v -1.800000 1.000000 -2.300000
v -1.300000 1.000000 -1.954506
v -1.654694 1.223610 -1.374675
v -1.438198 1.262868 -1.550002
v -1.714592 1.425327 -1.550002
v -2.180422 1.223610 -1.537137
v -1.938198 1.262869 -1.395494
v -2.023605 1.425327 -1.645494
v -2.180422 1.223610 -2.062863
v -2.247211 1.262868 -1.800000
v -2.023605 1.425327 -1.954506
v -1.654694 1.223610 -2.225325
v -1.938198 1.262869 -2.204506
v -1.714592 1.425327 -2.049998
v -1.329773 1.223608 -1.800000
v -1.438198 1.262868 -2.049999
v -1.523608 1.425326 -1.800000
v -1.800000 1.500000 -1.800000
vn 0.097419 -0.943996 0.315248
vn 0.682114 -0.677755 0.274534
vn -0.255795 -0.946776 0.195408
vn -0.255795 -0.946776 -0.195409
vn 0.097418 -0.943996 -0.315248
vn 0.896465 -0.344115 0.279169
vn 0.023537 -0.330395 0.943549
vn -0.880067 -0.343626 0.327724
vn -0.555304 -0.335719 -0.760875
vn 0.515493 -0.334987 -0.788702
vn 0.787947 -0.129679 0.601933
vn -0.292884 -0.126194 0.947784
vn -0.991252 -0.131985 0.000000
vn -0.292883 -0.126192 -0.947784
vn 0.787947 -0.129678 -0.601933
vn 0.392077 0.667046 0.633502
vn -0.453063 0.668830 0.589407
vn -0.682112 0.677756 -0.274534
vn 0.036646 0.661746 -0.748832
vn 0.706517 0.678906 -0.199801
vn -0.036647 -0.661746 0.748832
vn 0.178713 -0.795997 0.578317
vn 0.453064 -0.668830 0.589406
vn 0.682114 -0.677755 -0.274534
vn 0.587784 -0.809018 0.000000
vn 0.316755 -0.948507 -0.000000
vn -0.706517 -0.678906 0.199802
vn -0.472557 -0.803969 0.361003
vn -0.392076 -0.667047 0.633502
vn -0.392074 -0.667047 -0.633503
vn -0.472557 -0.803970 -0.361003
vn -0.706516 -0.678906 -0.199801
vn 0.453063 -0.668830 -0.589407
vn 0.178714 -0.795996 -0.578318
vn -0.036648 -0.661746 -0.748832
vn 0.991252 0.131983 0.000000
vn 0.980426 -0.196889 0.000000
vn 0.896465 -0.344115 -0.279168
vn 0.292883 0.126194 0.947784
vn 0.289954 -0.188427 0.938308
vn 0.515495 -0.334987 0.788701
vn -0.787947 0.129678 0.601933
vn -0.779635 -0.193521 0.595583
vn -0.555306 -0.335721 0.760872
vn -0.787947 0.129678 -0.601933
vn -0.779635 -0.193519 -0.595583
vn -0.880068 -0.343625 -0.327723
vn 0.292883 0.126193 -0.947784
vn 0.289955 -0.188426 -0.938308
vn 0.023538 -0.330394 -0.943550
vn 0.555306 0.335721 0.760872
vn 0.779635 0.193521 0.595583
vn 0.880067 0.343627 0.327724
vn -0.515495 0.334987 0.788701
vn -0.289955 0.188427 0.938308
vn -0.023536 0.330395 0.943549
vn -0.896466 0.344113 -0.279169
vn -0.980426 0.196888 0.000000
vn -0.896465 0.344115 0.279169
vn -0.023539 0.330395 -0.943549
vn -0.289954 0.188427 -0.938308
vn -0.515494 0.334988 -0.788701
vn 0.880067 0.343626 -0.327723
vn 0.779635 0.193520 -0.595584
vn 0.555306 0.335720 -0.760873
vn 0.255794 0.946776 0.195408
vn 0.472557 0.803969 0.361003
vn 0.706517 0.678905 0.199802
vn -0.097419 0.943996 0.315248
vn -0.178713 0.795996 0.578318
vn 0.036647 0.661747 0.748831
vn -0.316755 0.948507 0.000000
vn -0.587785 0.809017 0.000000
vn -0.682114 0.677755 0.274534
vn -0.097419 0.943996 -0.315248
vn -0.178713 0.795997 -0.578317
vn -0.453063 0.668830 -0.589406
vn 0.255794 0.946776 -0.195408
vn 0.472556 0.803970 -0.361003
vn 0.392075 0.667048 -0.633502
s off
f 1//1 2//1 3//1
f 4//2 2//2 5//2
f 1//3 3//3 6//3
f 1//4 6//4 7//4
f 1//5 7//5 8//5
f 4//6 5//6 9//6
f 10//7 11//7 12//7
f 13//8 14//8 15//8
f 16//9 17//9 18//9
f 19//10 20//10 21//10
f 4//11 9//11 22//11
f 10//12 12//12 23//12
f 13//13 15//13 24//13
f 16//14 18//14 25//14
f 19//15 21//15 26//15
f 27//16 28//16 29//16
f 30//17 31//17 32//17
f 33//18 34//18 35//18
f 36//19 37//19 38//19
f 39//20 40//20 41//20
f 3//21 11//21 10//21
f 3//22 2//22 11//22
f 2//23 4//23 11//23
f 5//24 8//24 19//24
f 5//25 2//25 8//25
f 2//26 1//26 8//26
f 6//27 14//27 13//27
f 6//28 3//28 14//28
f 3//29 10//29 14//29
f 7//30 17//30 16//30
f 7//31 6//31 17//31
f 6//32 13//32 17//32
f 8//33 20//33 19//33
f 8//34 7//34 20//34
f 7//35 16//35 20//35
f 9//36 26//36 39//36
f 9//37 5//37 26//37
f 5//38 19//38 26//38
f 12//39 22//39 27//39
f 12//40 11//40 22//40
f 11//41 4//41 22//41
f 15//42 23//42 30//42
f 15//43 14//43 23//43
f 14//44 10//44 23//44
f 18//45 24//45 33//45
f 18//46 17//46 24//46
f 17//47 13//47 24//47
f 21//48 25//48 36//48
f 21//49 20//49 25//49
f 20//50 16//50 25//50
f 22//51 28//51 27//51
f 22//52 9//52 28//52
f 9//53 39//53 28//53
f 23//54 31//54 30//54
f 23//55 12//55 31//55
f 12//56 27//56 31//56
f 24//57 34//57 33//57
f 24//58 15//58 34//58
f 15//59 30//59 34//59
f 25//60 37//60 36//60
f 25//61 18//61 37//61
f 18//62 33//62 37//62
f 26//63 40//63 39//63
f 26//64 21//64 40//64
f 21//65 36//65 40//65
f 29//66 41//66 42//66
f 29//67 28//67 41//67
f 28//68 39//68 41//68
f 32//69 29//69 42//69
f 32//70 31//70 29//70
f 31//71 27//71 29//71
f 35//72 32//72 42//72
f 35//73 34//73 32//73
f 34//74 30//74 32//74
f 38//75 35//75 42//75
f 38//76 37//76 35//76
f 37//77 33//77 35//77
f 41//78 38//78 42//78
f 41//79 40//79 38//79
f 40//80 36//80 38//80
