# Blender v2.69 (sub 0) OBJ File: 'mobile.blend'
# www.blender.org
o Cylinder_Cylinder.010_Cylinder_Cylinder.012
v -0.962500 -0.849029 -0.664330
v -0.962500 -0.249029 -0.664330
v -0.961607 -0.849029 -0.664734
v -0.961607 -0.249029 -0.664734
v -0.960653 -0.849029 -0.664957
v -0.960653 -0.249029 -0.664957
v -0.959672 -0.849029 -0.664989
v -0.959672 -0.249029 -0.664989
v -0.958706 -0.849029 -0.664830
v -0.958706 -0.249029 -0.664830
v -0.957789 -0.849029 -0.664484
v -0.957789 -0.249029 -0.664484
v -0.956956 -0.849029 -0.663966
v -0.956956 -0.249029 -0.663966
v -0.956241 -0.849029 -0.663297
v -0.956241 -0.249029 -0.663297
v -0.955670 -0.849029 -0.662500
v -0.955670 -0.249029 -0.662500
v -0.955265 -0.849029 -0.661608
v -0.955265 -0.249029 -0.661608
v -0.955043 -0.849029 -0.660653
v -0.955043 -0.249029 -0.660653
v -0.955011 -0.849029 -0.659673
v -0.955011 -0.249029 -0.659673
v -0.955171 -0.849029 -0.658706
v -0.955171 -0.249029 -0.658706
v -0.955515 -0.849029 -0.657789
v -0.955515 -0.249029 -0.657789
v -0.956034 -0.849029 -0.656956
v -0.956034 -0.249029 -0.656956
v -0.956703 -0.849029 -0.656241
v -0.956703 -0.249029 -0.656240
v -0.957500 -0.849029 -0.655670
v -0.957500 -0.249029 -0.655670
v -0.958393 -0.849029 -0.655265
v -0.958393 -0.249029 -0.655265
v -0.959347 -0.849029 -0.655043
v -0.959347 -0.249029 -0.655043
v -0.960327 -0.849029 -0.655011
v -0.960327 -0.249029 -0.655011
v -0.961295 -0.849029 -0.655171
v -0.961295 -0.249029 -0.655171
v -0.962211 -0.849029 -0.655516
v -0.962211 -0.249029 -0.655516
v -0.963043 -0.849029 -0.656034
v -0.963043 -0.249029 -0.656034
v -0.963759 -0.849029 -0.656704
v -0.963759 -0.249029 -0.656704
v -0.964330 -0.849029 -0.657500
v -0.964330 -0.249029 -0.657500
v -0.964735 -0.849029 -0.658393
v -0.964735 -0.249029 -0.658393
v -0.964956 -0.849029 -0.659347
v -0.964956 -0.249029 -0.659347
v -0.964989 -0.849029 -0.660327
v -0.964989 -0.249029 -0.660327
v -0.964830 -0.849029 -0.661294
v -0.964830 -0.249029 -0.661294
v -0.964484 -0.849029 -0.662211
v -0.964484 -0.249029 -0.662211
v -0.963966 -0.849029 -0.663044
v -0.963297 -0.849029 -0.663759
v -0.963297 -0.249029 -0.663759
v -0.963966 -0.249029 -0.663044
vn -0.412580 0.000000 -0.910921
vn -0.226878 0.000000 -0.973923
vn -0.032922 0.000000 -0.999458
vn 0.162642 0.000000 -0.986685
vn 0.352358 0.000000 -0.935865
vn 0.528322 0.000000 -0.849044
vn 0.683046 0.000000 -0.730375
vn 0.812915 0.000000 -0.582382
vn 0.910854 -0.000000 -0.412729
vn 0.973976 -0.000000 -0.226653
vn 0.999453 -0.000000 -0.033065
vn 0.986549 0.000000 0.163465
vn 0.936109 -0.000000 0.351710
vn 0.849013 -0.000000 0.528372
vn 0.730138 -0.000000 0.683300
vn 0.582341 -0.000000 0.812945
vn 0.412979 -0.000000 0.910741
vn 0.226393 -0.000000 0.974036
vn 0.033025 -0.000000 0.999454
vn -0.162802 -0.000000 0.986659
vn -0.352395 -0.000000 0.935851
vn -0.528295 0.000000 0.849061
vn -0.683344 0.000000 0.730096
vn -0.812808 0.000000 0.582532
vn -0.910815 0.000000 0.412815
vn -0.974031 0.000000 0.226415
vn -0.999455 0.000000 0.033005
vn -0.986794 0.000000 -0.161979
vn -0.935590 0.000000 -0.353089
vn -0.849040 0.000000 -0.528328
vn 0.000000 1.000000 0.000310
vn -0.582464 0.000000 -0.812856
vn -0.730279 0.000000 -0.683149
vn 0.000000 -1.000000 0.000000
vn -0.226686 0.000000 -0.973968
vn 0.162651 0.000000 -0.986684
vn 0.352249 0.000000 -0.935906
vn 0.528395 0.000000 -0.848998
vn 0.683047 -0.000000 -0.730375
vn 0.812881 0.000000 -0.582430
vn 0.910871 0.000000 -0.412690
vn 0.986539 -0.000000 0.163524
vn 0.936141 -0.000000 0.351623
vn 0.730233 -0.000000 0.683199
vn 0.582408 -0.000000 0.812897
vn 0.412810 -0.000000 0.910817
vn 0.226200 -0.000000 0.974081
vn 0.033228 -0.000000 0.999448
vn -0.162901 -0.000000 0.986643
vn -0.352573 -0.000000 0.935784
vn -0.528341 -0.000000 0.849032
vn -0.683267 -0.000000 0.730169
vn -0.812876 -0.000000 0.582436
vn -0.910867 0.000000 0.412701
vn -0.974023 -0.000000 0.226450
vn -0.999457 -0.000000 0.032944
vn -0.986792 0.000000 -0.161995
vn -0.849069 0.000000 -0.528282
vn 0.000000 1.000000 0.000000
vn 0.000000 1.000000 0.000018
vn 0.000000 1.000000 -0.000015
vn 0.000000 1.000000 0.000007
vn 0.000000 1.000000 -0.000078
vn 0.000000 1.000000 -0.000155
vn 0.000000 1.000000 0.000105
vn 0.000000 1.000000 0.000016
vn 0.000000 1.000000 -0.000019
vn 0.000000 1.000000 0.000005
vn 0.000000 1.000000 -0.000013
vn 0.000000 1.000000 -0.000007
vn -0.582531 0.000000 -0.812809
vn -0.730326 0.000000 -0.683099
vn 0.000000 -1.000000 0.000838
vn 0.000000 -1.000000 -0.000428
vn 0.000000 -1.000000 0.000264
vn 0.000000 -1.000000 0.000212
vn 0.000000 -1.000000 -0.000148
vn 0.000000 -1.000000 0.000621
vn 0.000000 -1.000000 -0.000154
vn 0.000000 -1.000000 0.000619
vn 0.000000 -1.000000 0.000419
vn 0.000000 -1.000000 -0.000011
vn 0.000000 -1.000000 -0.000066
vn 0.000000 -1.000000 0.000040
vn 0.000000 -1.000000 0.000054
vn 0.000000 -1.000000 -0.000065
s off
f 1//1 2//1 3//1
f 3//2 4//2 5//2
f 5//3 6//3 7//3
f 7//4 8//4 9//4
f 9//5 10//5 11//5
f 11//6 12//6 13//6
f 13//7 14//7 15//7
f 15//8 16//8 17//8
f 17//9 18//9 19//9
f 19//10 20//10 21//10
f 21//11 22//11 23//11
f 23//12 24//12 25//12
f 25//13 26//13 27//13
f 27//14 28//14 29//14
f 29//15 30//15 31//15
f 31//16 32//16 33//16
f 33//17 34//17 35//17
f 35//18 36//18 37//18
f 37//19 38//19 39//19
f 39//20 40//20 41//20
f 41//21 42//21 43//21
f 43//22 44//22 45//22
f 45//23 46//23 47//23
f 47//24 48//24 49//24
f 49//25 50//25 51//25
f 51//26 52//26 53//26
f 53//27 54//27 55//27
f 55//28 56//28 57//28
f 57//29 58//29 59//29
f 59//30 60//30 61//30
f 4//31 2//31 6//31
f 63//32 1//32 62//32
f 61//33 64//33 62//33
f 1//34 3//34 62//34
f 2//1 4//1 3//1
f 4//35 6//35 5//35
f 6//3 8//3 7//3
f 8//36 10//36 9//36
f 10//37 12//37 11//37
f 12//38 14//38 13//38
f 14//39 16//39 15//39
f 16//40 18//40 17//40
f 18//41 20//41 19//41
f 20//10 22//10 21//10
f 22//11 24//11 23//11
f 24//42 26//42 25//42
f 26//43 28//43 27//43
f 28//14 30//14 29//14
f 30//44 32//44 31//44
f 32//45 34//45 33//45
f 34//46 36//46 35//46
f 36//47 38//47 37//47
f 38//48 40//48 39//48
f 40//49 42//49 41//49
f 42//50 44//50 43//50
f 44//51 46//51 45//51
f 46//52 48//52 47//52
f 48//53 50//53 49//53
f 50//54 52//54 51//54
f 52//55 54//55 53//55
f 54//56 56//56 55//56
f 56//57 58//57 57//57
f 58//29 60//29 59//29
f 60//58 64//58 61//58
f 2//59 63//59 6//59
f 63//59 64//59 6//59
f 64//59 60//59 6//59
f 60//59 58//59 6//59
f 58//59 56//59 6//59
f 56//59 54//59 6//59
f 54//59 52//59 6//59
f 52//60 50//60 6//60
f 50//59 48//59 6//59
f 48//61 46//61 6//61
f 46//62 44//62 6//62
f 44//59 42//59 40//59
f 6//59 44//59 40//59
f 24//63 28//63 26//63
f 10//59 8//59 12//59
f 34//64 38//64 36//64
f 32//65 38//65 34//65
f 18//59 22//59 20//59
f 16//59 22//59 18//59
f 30//59 38//59 32//59
f 14//59 22//59 16//59
f 30//66 40//66 38//66
f 6//59 40//59 30//59
f 14//67 24//67 22//67
f 14//68 28//68 24//68
f 12//69 28//69 14//69
f 12//59 8//59 28//59
f 8//59 6//59 28//59
f 6//70 30//70 28//70
f 2//71 1//71 63//71
f 64//72 63//72 62//72
f 3//73 5//73 62//73
f 5//74 7//74 62//74
f 7//75 9//75 62//75
f 9//34 11//34 62//34
f 11//34 13//34 62//34
f 13//76 15//76 62//76
f 15//34 17//34 62//34
f 17//77 19//77 62//77
f 19//34 21//34 62//34
f 21//34 23//34 62//34
f 23//34 25//34 62//34
f 43//78 39//78 41//78
f 59//79 55//79 57//79
f 33//80 29//80 31//80
f 35//34 29//34 33//34
f 49//34 45//34 47//34
f 51//81 45//81 49//81
f 37//34 29//34 35//34
f 53//34 45//34 51//34
f 25//34 27//34 62//34
f 27//34 29//34 37//34
f 62//82 27//82 37//82
f 53//83 43//83 45//83
f 53//84 39//84 43//84
f 55//34 39//34 53//34
f 59//34 39//34 55//34
f 61//85 62//85 37//85
f 59//86 61//86 39//86
f 61//34 37//34 39//34
o Cylinder_Cylinder.009_Cylinder_Cylinder.011
v -0.962500 -1.243198 0.735670
v -0.962500 -0.243198 0.735670
v -0.961607 -1.243198 0.735266
v -0.961607 -0.243198 0.735266
v -0.960653 -1.243198 0.735043
v -0.960653 -0.243198 0.735043
v -0.959672 -1.243198 0.735011
v -0.959672 -0.243198 0.735011
v -0.958706 -1.243198 0.735170
v -0.958706 -0.243198 0.735170
v -0.957789 -1.243198 0.735516
v -0.957789 -0.243198 0.735516
v -0.956956 -1.243198 0.736034
v -0.956956 -0.243198 0.736034
v -0.956241 -1.243198 0.736703
v -0.956241 -0.243198 0.736703
v -0.955670 -1.243198 0.737500
v -0.955670 -0.243198 0.737500
v -0.955265 -1.243198 0.738392
v -0.955265 -0.243198 0.738392
v -0.955043 -1.243198 0.739347
v -0.955043 -0.243198 0.739347
v -0.955011 -1.243198 0.740327
v -0.955011 -0.243198 0.740327
v -0.955171 -1.243198 0.741294
v -0.955171 -0.243198 0.741294
v -0.955515 -1.243198 0.742211
v -0.955515 -0.243198 0.742211
v -0.956034 -1.243198 0.743044
v -0.956034 -0.243198 0.743044
v -0.956703 -1.243198 0.743760
v -0.956703 -0.243198 0.743760
v -0.957500 -1.243198 0.744330
v -0.957500 -0.243198 0.744330
v -0.958393 -1.243198 0.744735
v -0.958393 -0.243198 0.744735
v -0.959347 -1.243198 0.744957
v -0.959347 -0.243198 0.744957
v -0.960327 -1.243198 0.744989
v -0.960327 -0.243198 0.744989
v -0.961295 -1.243198 0.744829
v -0.961295 -0.243198 0.744830
v -0.962211 -1.243198 0.744484
v -0.962211 -0.243198 0.744484
v -0.963044 -1.243198 0.743966
v -0.963043 -0.243198 0.743966
v -0.963759 -1.243198 0.743296
v -0.963759 -0.243198 0.743296
v -0.964330 -1.243198 0.742500
v -0.964330 -0.243198 0.742500
v -0.964735 -1.243198 0.741607
v -0.964735 -0.243198 0.741607
v -0.964957 -1.243198 0.740653
v -0.964956 -0.243198 0.740653
v -0.964989 -1.243198 0.739673
v -0.964989 -0.243198 0.739673
v -0.964830 -1.243198 0.738706
v -0.964830 -0.243198 0.738706
v -0.964484 -1.243198 0.737789
v -0.964484 -0.243198 0.737789
v -0.963966 -1.243198 0.736956
v -0.963297 -1.243198 0.736241
v -0.963297 -0.243198 0.736241
v -0.963966 -0.243198 0.736956
vn -0.412721 0.000000 -0.910857
vn -0.226653 0.000000 -0.973976
vn -0.032942 0.000000 -0.999457
vn 0.162671 0.000000 -0.986680
vn 0.352409 0.000000 -0.935846
vn 0.528337 0.000000 -0.849035
vn 0.683003 0.000000 -0.730416
vn 0.812965 0.000000 -0.582313
vn 0.910835 -0.000000 -0.412771
vn 0.973976 -0.000000 -0.226653
vn 0.999453 -0.000000 -0.033068
vn 0.986541 -0.000000 0.163511
vn 0.936139 -0.000000 0.351630
vn 0.848974 -0.000000 0.528435
vn 0.730242 -0.000000 0.683188
vn 0.582435 -0.000000 0.812878
vn 0.412827 -0.000000 0.910809
vn 0.226277 -0.000000 0.974063
vn 0.033066 -0.000000 0.999453
vn -0.162901 -0.000000 0.986643
vn -0.352484 -0.000000 0.935818
vn -0.528282 -0.000000 0.849069
vn -0.683375 0.000000 0.730068
vn -0.812808 0.000000 0.582532
vn -0.910863 0.000000 0.412708
vn -0.974020 0.000000 0.226464
vn -0.999457 0.000000 0.032942
vn -0.986795 0.000000 -0.161972
vn -0.935577 0.000000 -0.353123
vn -0.849069 0.000000 -0.528282
vn 0.000000 1.000000 0.000000
vn -0.582410 0.000000 -0.812895
vn -0.730326 0.000000 -0.683099
vn 0.000000 -1.000000 0.000000
vn -0.412698 0.000000 -0.910868
vn -0.226782 0.000000 -0.973946
vn -0.033064 0.000000 -0.999453
vn 0.162661 0.000000 -0.986682
vn 0.352322 0.000000 -0.935879
vn 0.528425 0.000000 -0.848980
vn 0.682973 0.000000 -0.730444
vn 0.910814 0.000000 -0.412817
vn 0.973995 0.000000 -0.226568
vn 0.986548 -0.000000 0.163472
vn 0.936119 0.000000 0.351683
vn 0.849008 -0.000000 0.528381
vn 0.730185 -0.000000 0.683249
vn 0.582354 -0.000000 0.812935
vn 0.412928 -0.000000 0.910764
vn 0.226393 -0.000000 0.974036
vn -0.162782 -0.000000 0.986662
vn -0.352377 -0.000000 0.935858
vn -0.528310 0.000000 0.849052
vn -0.683344 -0.000000 0.730096
vn -0.910822 0.000000 0.412800
vn -0.974033 0.000000 0.226406
vn -0.999455 -0.000000 0.033003
vn 0.000000 1.000000 0.000091
vn 0.000000 1.000000 -0.000067
vn 0.000000 1.000000 0.000053
vn 0.000000 1.000000 -0.000018
vn 0.000000 1.000000 0.000007
vn 0.000000 1.000000 0.000078
vn 0.000000 1.000000 -0.000310
vn 0.000000 1.000000 0.000039
vn 0.000000 1.000000 -0.000066
vn 0.000000 1.000000 0.000005
vn 0.000000 1.000000 -0.000007
vn -0.582411 0.000000 -0.812895
vn -0.730326 0.000000 -0.683098
vn 0.000000 -1.000000 0.000838
vn 0.000000 -1.000000 -0.000233
vn 0.000000 -0.999999 0.001241
vn 0.000000 -1.000000 -0.000154
vn 0.000000 -1.000000 0.000619
vn 0.000000 -1.000000 0.000419
vn 0.000000 -1.000000 -0.000419
vn 0.000000 -1.000000 -0.000427
vn 0.000000 -1.000000 0.000527
vn 0.000000 -1.000000 -0.000080
s off
f 65//87 66//87 67//87
f 67//88 68//88 69//88
f 69//89 70//89 71//89
f 71//90 72//90 73//90
f 73//91 74//91 75//91
f 75//92 76//92 77//92
f 77//93 78//93 79//93
f 79//94 80//94 81//94
f 81//95 82//95 83//95
f 83//96 84//96 85//96
f 85//97 86//97 87//97
f 87//98 88//98 89//98
f 89//99 90//99 91//99
f 91//100 92//100 93//100
f 93//101 94//101 95//101
f 95//102 96//102 97//102
f 97//103 98//103 99//103
f 99//104 100//104 101//104
f 101//105 102//105 103//105
f 103//106 104//106 105//106
f 105//107 106//107 107//107
f 107//108 108//108 109//108
f 109//109 110//109 111//109
f 111//110 112//110 113//110
f 113//111 114//111 115//111
f 115//112 116//112 117//112
f 117//113 118//113 119//113
f 119//114 120//114 121//114
f 121//115 122//115 123//115
f 123//116 124//116 125//116
f 68//117 66//117 70//117
f 127//118 65//118 126//118
f 125//119 128//119 126//119
f 65//120 67//120 126//120
f 66//121 68//121 67//121
f 68//122 70//122 69//122
f 70//123 72//123 71//123
f 72//124 74//124 73//124
f 74//125 76//125 75//125
f 76//126 78//126 77//126
f 78//127 80//127 79//127
f 80//94 82//94 81//94
f 82//128 84//128 83//128
f 84//129 86//129 85//129
f 86//97 88//97 87//97
f 88//130 90//130 89//130
f 90//131 92//131 91//131
f 92//132 94//132 93//132
f 94//133 96//133 95//133
f 96//134 98//134 97//134
f 98//135 100//135 99//135
f 100//136 102//136 101//136
f 102//105 104//105 103//105
f 104//137 106//137 105//137
f 106//138 108//138 107//138
f 108//139 110//139 109//139
f 110//140 112//140 111//140
f 112//110 114//110 113//110
f 114//141 116//141 115//141
f 116//142 118//142 117//142
f 118//143 120//143 119//143
f 120//114 122//114 121//114
f 122//115 124//115 123//115
f 124//116 128//116 125//116
f 66//117 127//117 70//117
f 127//117 128//117 70//117
f 128//117 124//117 70//117
f 124//144 122//144 70//144
f 122//145 120//145 70//145
f 120//146 118//146 70//146
f 118//117 116//117 70//117
f 116//147 114//147 70//147
f 114//117 112//117 70//117
f 112//117 110//117 70//117
f 110//148 108//148 70//148
f 108//117 106//117 104//117
f 70//117 108//117 104//117
f 88//149 92//149 90//149
f 74//150 72//150 76//150
f 98//117 102//117 100//117
f 96//117 102//117 98//117
f 82//151 86//151 84//151
f 80//117 86//117 82//117
f 94//117 102//117 96//117
f 78//117 86//117 80//117
f 94//152 104//152 102//152
f 70//117 104//117 94//117
f 78//153 88//153 86//153
f 78//117 92//117 88//117
f 76//117 92//117 78//117
f 76//117 72//117 92//117
f 72//117 70//117 92//117
f 70//154 94//154 92//154
f 66//155 65//155 127//155
f 128//156 127//156 126//156
f 67//157 69//157 126//157
f 69//120 71//120 126//120
f 71//120 73//120 126//120
f 73//120 75//120 126//120
f 75//120 77//120 126//120
f 77//120 79//120 126//120
f 79//120 81//120 126//120
f 81//120 83//120 126//120
f 83//120 85//120 126//120
f 85//158 87//158 126//158
f 87//120 89//120 126//120
f 107//159 103//159 105//159
f 123//160 119//160 121//160
f 97//161 93//161 95//161
f 99//162 93//162 97//162
f 113//120 109//120 111//120
f 115//163 109//163 113//163
f 101//164 93//164 99//164
f 117//120 109//120 115//120
f 89//120 91//120 126//120
f 91//165 93//165 101//165
f 126//120 91//120 101//120
f 117//120 107//120 109//120
f 117//166 103//166 107//166
f 119//120 103//120 117//120
f 123//120 103//120 119//120
f 125//120 126//120 101//120
f 123//120 125//120 103//120
f 125//120 101//120 103//120
o Cylinder.003_Cylinder.004
v -0.960000 -0.154583 -0.710000
v -0.960000 -0.154584 0.790000
v -0.950245 -0.155544 -0.710000
v -0.950245 -0.155545 0.790000
v -0.940866 -0.158389 -0.710000
v -0.940866 -0.158390 0.790000
v -0.932221 -0.163010 -0.710000
v -0.932221 -0.163010 0.790000
v -0.924645 -0.169228 -0.710000
v -0.924645 -0.169229 0.790000
v -0.918427 -0.176804 -0.710000
v -0.918427 -0.176805 0.790000
v -0.913806 -0.185449 -0.710000
v -0.913806 -0.185450 0.790000
v -0.910961 -0.194828 -0.710000
v -0.910961 -0.194829 0.790000
v -0.910000 -0.204583 -0.710000
v -0.910000 -0.204584 0.790000
v -0.910961 -0.214337 -0.710000
v -0.910961 -0.214338 0.790000
v -0.913806 -0.223717 -0.710000
v -0.913806 -0.223718 0.790000
v -0.918427 -0.232361 -0.710000
v -0.918427 -0.232362 0.790000
v -0.924645 -0.239938 -0.710000
v -0.924645 -0.239939 0.790000
v -0.932221 -0.246156 -0.710000
v -0.932221 -0.246157 0.790000
v -0.940866 -0.250777 -0.710000
v -0.940866 -0.250778 0.790000
v -0.950245 -0.253622 -0.710000
v -0.950245 -0.253623 0.790000
v -0.960000 -0.254583 -0.710000
v -0.960000 -0.254584 0.790000
v -0.969755 -0.253622 -0.710000
v -0.969755 -0.253623 0.790000
v -0.979134 -0.250777 -0.710000
v -0.979134 -0.250778 0.790000
v -0.987779 -0.246156 -0.710000
v -0.987779 -0.246157 0.790000
v -0.995355 -0.239938 -0.710000
v -0.995355 -0.239939 0.790000
v -1.001573 -0.232361 -0.710000
v -1.001573 -0.232362 0.790000
v -1.006194 -0.223717 -0.710000
v -1.006194 -0.223718 0.790000
v -1.009039 -0.214337 -0.710000
v -1.009039 -0.214338 0.790000
v -1.010000 -0.204583 -0.710000
v -1.010000 -0.204584 0.790000
v -1.009039 -0.194828 -0.710000
v -1.009039 -0.194829 0.790000
v -1.006194 -0.185449 -0.710000
v -1.006194 -0.185450 0.790000
v -1.001573 -0.176804 -0.710000
v -1.001573 -0.176805 0.790000
v -0.995355 -0.169228 -0.710000
v -0.995355 -0.169229 0.790000
v -0.987778 -0.163009 -0.710000
v -0.987778 -0.163010 0.790000
v -0.979134 -0.158389 -0.710000
v -0.979134 -0.158390 0.790000
v -0.969754 -0.155544 -0.710000
v -0.969754 -0.155545 0.790000
vn 0.098017 0.995185 0.000001
vn 0.290283 0.956941 0.000001
vn 0.471394 0.881923 0.000001
vn 0.634395 0.773009 0.000000
vn 0.773020 0.634381 0.000000
vn 0.881919 0.471402 0.000000
vn 0.956940 0.290285 0.000000
vn 0.995184 0.098026 0.000000
vn 0.995185 -0.098010 -0.000000
vn 0.956940 -0.290285 -0.000000
vn 0.881926 -0.471388 -0.000000
vn 0.773004 -0.634402 -0.000000
vn 0.634388 -0.773015 -0.000001
vn 0.471401 -0.881919 -0.000001
vn 0.290283 -0.956941 -0.000001
vn 0.098019 -0.995184 -0.000001
vn -0.098019 -0.995185 -0.000001
vn -0.290283 -0.956941 -0.000001
vn -0.471400 -0.881920 -0.000001
vn -0.634388 -0.773015 -0.000000
vn -0.773012 -0.634391 -0.000000
vn -0.881919 -0.471401 -0.000000
vn -0.956936 -0.290299 -0.000000
vn -0.995185 -0.098010 -0.000000
vn -0.995184 0.098026 0.000000
vn -0.956936 0.290300 0.000000
vn -0.881919 0.471401 0.000000
vn -0.773012 0.634392 0.000000
vn -0.634387 0.773015 0.000000
vn -0.471400 0.881920 0.000001
vn -0.000025 -0.000031 1.000000
vn -0.098019 0.995184 0.000001
vn -0.290281 0.956942 0.000001
vn 0.000000 0.000000 -1.000000
vn 0.290288 0.956939 0.000001
vn 0.471400 0.881920 0.000001
vn 0.634388 0.773015 0.000001
vn 0.773004 0.634402 0.000000
vn 0.881926 0.471388 0.000000
vn 0.995185 0.098010 0.000000
vn 0.995184 -0.098026 -0.000000
vn 0.881919 -0.471401 -0.000000
vn 0.773020 -0.634381 -0.000000
vn 0.634396 -0.773008 -0.000001
vn 0.471393 -0.881923 -0.000001
vn 0.098017 -0.995185 -0.000001
vn -0.098017 -0.995185 -0.000001
vn -0.290286 -0.956940 -0.000001
vn -0.634395 -0.773009 -0.000000
vn -0.773020 -0.634381 -0.000000
vn -0.881919 -0.471400 -0.000000
vn -0.956945 -0.290270 -0.000000
vn -0.995184 -0.098026 -0.000000
vn -0.995185 0.098010 0.000000
vn -0.956940 0.290285 0.000000
vn -0.881926 0.471388 0.000000
vn -0.634395 0.773009 0.000000
vn -0.471392 0.881924 0.000001
vn 0.000000 -0.000010 1.000000
vn 0.000001 -0.000021 1.000000
vn 0.000000 0.000000 1.000000
vn 0.000010 0.000000 1.000000
vn -0.000009 0.000000 1.000000
vn -0.000002 0.000000 1.000000
vn 0.000004 0.000000 1.000000
vn 0.000016 -0.000004 1.000000
vn 0.000000 -0.000001 1.000000
vn -0.000025 0.000000 1.000000
vn 0.000000 0.000017 1.000000
vn -0.000017 0.000003 1.000000
vn 0.000000 0.000002 1.000000
vn -0.000015 -0.000002 1.000000
vn -0.000008 0.000000 1.000000
vn -0.000004 -0.000000 1.000000
vn -0.098016 0.995185 0.000001
vn -0.290282 0.956941 0.000001
vn 0.000000 0.000021 -1.000000
vn 0.000000 -0.000005 -1.000000
vn -0.000011 -0.000003 -1.000000
vn 0.000000 -0.000001 -1.000000
vn -0.000012 0.000000 -1.000000
vn -0.000050 0.000000 -1.000000
vn 0.000013 0.000000 -1.000000
vn 0.000050 0.000000 -1.000000
vn -0.000013 0.000000 -1.000000
vn 0.000000 -0.000027 -1.000000
vn 0.000004 0.000002 -1.000000
vn -0.000006 0.000000 -1.000000
vn -0.000001 0.000021 -1.000000
vn 0.000005 0.000001 -1.000000
vn -0.000019 -0.000001 -1.000000
vn 0.000021 0.000000 -1.000000
vn 0.000009 0.000000 -1.000000
s off
f 129//167 130//167 131//167
f 131//168 132//168 133//168
f 133//169 134//169 135//169
f 135//170 136//170 137//170
f 137//171 138//171 139//171
f 139//172 140//172 141//172
f 141//173 142//173 143//173
f 143//174 144//174 145//174
f 145//175 146//175 147//175
f 147//176 148//176 149//176
f 149//177 150//177 151//177
f 151//178 152//178 153//178
f 153//179 154//179 155//179
f 155//180 156//180 157//180
f 157//181 158//181 159//181
f 159//182 160//182 161//182
f 161//183 162//183 163//183
f 163//184 164//184 165//184
f 165//185 166//185 167//185
f 167//186 168//186 169//186
f 169//187 170//187 171//187
f 171//188 172//188 173//188
f 173//189 174//189 175//189
f 175//190 176//190 177//190
f 177//191 178//191 179//191
f 179//192 180//192 181//192
f 181//193 182//193 183//193
f 183//194 184//194 185//194
f 185//195 186//195 187//195
f 187//196 188//196 189//196
f 132//197 130//197 134//197
f 191//198 192//198 129//198
f 189//199 190//199 191//199
f 129//200 131//200 191//200
f 130//167 132//167 131//167
f 132//201 134//201 133//201
f 134//202 136//202 135//202
f 136//203 138//203 137//203
f 138//204 140//204 139//204
f 140//205 142//205 141//205
f 142//173 144//173 143//173
f 144//206 146//206 145//206
f 146//207 148//207 147//207
f 148//176 150//176 149//176
f 150//208 152//208 151//208
f 152//209 154//209 153//209
f 154//210 156//210 155//210
f 156//211 158//211 157//211
f 158//181 160//181 159//181
f 160//212 162//212 161//212
f 162//213 164//213 163//213
f 164//214 166//214 165//214
f 166//185 168//185 167//185
f 168//215 170//215 169//215
f 170//216 172//216 171//216
f 172//217 174//217 173//217
f 174//218 176//218 175//218
f 176//219 178//219 177//219
f 178//220 180//220 179//220
f 180//221 182//221 181//221
f 182//222 184//222 183//222
f 184//194 186//194 185//194
f 186//223 188//223 187//223
f 188//224 190//224 189//224
f 130//225 192//225 134//225
f 192//226 190//226 134//226
f 190//227 188//227 134//227
f 188//227 186//227 134//227
f 186//227 184//227 134//227
f 184//227 182//227 134//227
f 182//227 180//227 134//227
f 180//227 178//227 134//227
f 178//228 176//228 134//228
f 176//229 174//229 134//229
f 174//227 172//227 134//227
f 172//227 170//227 168//227
f 134//230 172//230 168//230
f 144//227 148//227 146//227
f 136//227 134//227 138//227
f 134//231 168//231 138//231
f 168//227 166//227 138//227
f 166//232 164//232 138//232
f 164//233 162//233 138//233
f 154//234 158//234 156//234
f 160//235 158//235 154//235
f 160//236 154//236 152//236
f 160//237 152//237 150//237
f 162//238 160//238 150//238
f 162//239 150//239 148//239
f 162//231 148//231 144//231
f 162//240 144//240 142//240
f 138//227 162//227 140//227
f 162//227 142//227 140//227
f 192//241 130//241 129//241
f 190//242 192//242 191//242
f 131//243 133//243 191//243
f 133//244 135//244 191//244
f 135//245 137//245 191//245
f 137//246 139//246 191//246
f 139//246 141//246 191//246
f 141//200 143//200 191//200
f 143//200 145//200 191//200
f 145//247 147//247 191//247
f 147//200 149//200 191//200
f 149//200 151//200 191//200
f 151//200 153//200 191//200
f 181//248 177//248 179//248
f 185//248 181//248 183//248
f 185//249 177//249 181//249
f 171//250 167//250 169//250
f 175//200 171//200 173//200
f 175//251 167//251 171//251
f 191//252 187//252 189//252
f 191//253 153//253 187//253
f 153//200 155//200 187//200
f 155//200 157//200 187//200
f 159//254 161//254 163//254
f 157//255 159//255 163//255
f 187//256 157//256 163//256
f 187//257 163//257 165//257
f 185//200 187//200 165//200
f 177//200 185//200 165//200
f 175//258 177//258 167//258
f 177//259 165//259 167//259
