# Blender v2.69 (sub 0) OBJ File: 'mobile.blend'
# www.blender.org
o Cube.002_Cube.003
v -0.822302 -2.637538 2.114568
v -1.169632 -2.637538 1.754898
v -1.097698 -2.637538 1.685432
v -0.750368 -2.637538 2.045102
v -0.822302 0.362462 2.114568
v -1.169632 0.362462 1.754898
v -1.097698 0.362462 1.685432
v -0.750368 0.362462 2.045102
vn -0.719339 0.000000 0.694659
vn -0.694659 0.000000 -0.719339
vn 0.719340 0.000000 -0.694658
vn 0.694661 0.000000 0.719338
vn 0.000000 -1.000000 -0.000005
vn 0.000000 1.000000 -0.000000
vn 0.719339 0.000000 -0.694659
vn 0.694657 0.000000 0.719341
vn 0.000000 -1.000000 0.000002
s off
f 5//1 6//1 1//1
f 6//2 7//2 2//2
f 7//3 8//3 3//3
f 8//4 5//4 4//4
f 1//5 2//5 4//5
f 8//6 7//6 5//6
f 6//1 2//1 1//1
f 7//2 3//2 2//2
f 8//7 4//7 3//7
f 5//8 1//8 4//8
f 2//9 3//9 4//9
f 7//6 6//6 5//6
