# Blender v2.69 (sub 0) OBJ File: ''
# www.blender.org
o Cube_Cube.001
v -4.550000 -5.000001 0.200000
v -4.550000 -5.000001 -0.200000
v -4.450000 -5.000001 -0.200000
v -4.450000 -5.000001 0.200000
v -4.550000 4.399985 0.200000
v -4.550000 4.399985 -0.200000
v -4.450000 4.399985 -0.200000
v -4.450000 4.399985 0.200000
v 4.450000 -5.000000 0.200000
v 4.450000 -5.000000 -0.200000
v 4.550000 -5.000000 -0.200000
v 4.550000 -5.000000 0.200000
v 4.450000 4.399986 0.200000
v 4.450000 4.399986 -0.200000
v 4.550000 4.399986 -0.200000
v 4.550000 4.399986 0.200000
v -4.459001 4.300626 -0.050000
v 4.459001 4.300620 -0.050000
v -4.459001 4.290871 -0.049039
v 4.459001 4.290866 -0.049039
v -4.459001 4.281491 -0.046194
v 4.459001 4.281486 -0.046194
v -4.459001 4.272847 -0.041573
v 4.459001 4.272841 -0.041573
v -4.459001 4.265270 -0.035355
v 4.459001 4.265265 -0.035355
v -4.459001 4.259052 -0.027779
v 4.459001 4.259047 -0.027779
v -4.459001 4.254432 -0.019134
v 4.459001 4.254426 -0.019134
v -4.459001 4.251586 -0.009755
v 4.459001 4.251581 -0.009755
v -4.459001 4.250626 -0.000000
v 4.459001 4.250620 -0.000000
v -4.459001 4.251586 0.009755
v 4.459001 4.251581 0.009755
v -4.459001 4.254432 0.019134
v 4.459001 4.254426 0.019134
v -4.459001 4.259052 0.027779
v 4.459001 4.259047 0.027779
v -4.459001 4.265270 0.035355
v 4.459001 4.265265 0.035355
v -4.459001 4.272847 0.041573
v 4.459001 4.272841 0.041573
v -4.459001 4.281491 0.046194
v 4.459001 4.281486 0.046194
v -4.459001 4.290871 0.049039
v 4.459001 4.290866 0.049039
v -4.459001 4.300626 0.050000
v 4.459001 4.300620 0.050000
v -4.459001 4.310380 0.049039
v 4.459001 4.310374 0.049039
v -4.459001 4.319759 0.046194
v 4.459001 4.319755 0.046194
v -4.459001 4.328404 0.041573
v 4.459001 4.328399 0.041573
v -4.459001 4.335981 0.035355
v 4.459001 4.335975 0.035355
v -4.459001 4.342199 0.027778
v 4.459001 4.342193 0.027778
v -4.459001 4.346820 0.019134
v 4.459001 4.346814 0.019134
v -4.459001 4.349665 0.009754
v 4.459001 4.349659 0.009754
v -4.459001 4.350626 -0.000000
v 4.459001 4.350619 -0.000000
v -4.459001 4.349665 -0.009755
v 4.459001 4.349659 -0.009755
v -4.459001 4.346820 -0.019134
v 4.459001 4.346814 -0.019134
v -4.459001 4.342199 -0.027779
v 4.459001 4.342193 -0.027779
v -4.459001 4.335981 -0.035355
v 4.459001 4.335975 -0.035355
v -4.459001 4.328404 -0.041574
v 4.459001 4.328399 -0.041574
v -4.459001 4.319759 -0.046194
v 4.459001 4.319755 -0.046194
v -4.459001 4.310380 -0.049039
v 4.459001 4.310374 -0.049039
v -5.000000 -5.100000 3.000000
v -5.000000 -5.100000 -3.000000
v 5.000000 -5.100000 -3.000000
v 5.000000 -5.100000 3.000000
v -5.000000 -4.900000 3.000000
v -5.000000 -4.900000 -3.000000
v 5.000000 -4.900000 -3.000000
v 5.000000 -4.900000 3.000000
vn -1.000000 0.000000 0.000000
vn 0.000000 0.000000 -1.000000
vn 1.000000 0.000000 0.000000
vn 0.000000 0.000000 1.000000
vn 0.000000 -1.000000 0.000000
vn 0.000000 1.000000 0.000000
vn -0.000000 -0.098018 -0.995185
vn -0.000000 -0.290282 -0.956941
vn -0.000000 -0.471410 -0.881914
vn -0.000000 -0.634374 -0.773026
vn -0.000000 -0.773027 -0.634373
vn -0.000001 -0.881918 -0.471404
vn -0.000001 -0.956937 -0.290296
vn -0.000001 -0.995193 -0.097930
vn -0.000001 -0.995185 0.098017
vn -0.000001 -0.956913 0.290376
vn -0.000001 -0.881918 0.471403
vn -0.000000 -0.773027 0.634373
vn -0.000000 -0.634374 0.773026
vn -0.000000 -0.471410 0.881914
vn -0.000000 -0.290306 0.956934
vn -0.000000 -0.098009 0.995185
vn 0.000000 0.098018 0.995185
vn 0.000000 0.290306 0.956934
vn 0.000000 0.471375 0.881933
vn 0.000000 0.634374 0.773026
vn 0.000001 0.773027 0.634372
vn 0.000001 0.881918 0.471403
vn 0.000001 0.956961 0.290216
vn 0.000001 0.995185 0.098017
vn 0.000001 0.995176 -0.098103
vn 0.000001 0.956937 -0.290296
vn 0.000001 0.881918 -0.471403
vn 0.000001 0.773027 -0.634373
vn 0.000000 0.634374 -0.773027
vn 0.000000 0.471373 -0.881934
vn 0.000000 0.098016 -0.995185
vn 0.000000 0.290281 -0.956941
vn -1.000000 -0.000018 0.000000
vn -0.000001 -0.995176 -0.098103
vn -0.000001 -0.956961 0.290216
vn -0.000000 -0.290257 0.956949
vn -0.000000 -0.098026 0.995184
vn 0.000000 0.290258 0.956948
vn 0.000000 0.471411 0.881914
vn 0.000000 0.634417 0.772991
vn 0.000001 0.881882 0.471471
vn 0.000001 0.956937 0.290296
vn 0.000001 0.995193 -0.097930
vn 0.000001 0.956961 -0.290216
vn 0.000001 0.881881 -0.471471
vn 0.000000 0.634416 -0.772991
vn 0.000000 0.471409 -0.881915
vn 1.000000 0.000005 0.000000
vn 1.000000 -0.000021 0.000000
vn 1.000000 -0.000056 0.000000
vn 1.000000 0.000047 0.000000
vn 1.000000 0.000041 0.000000
vn 1.000000 -0.000075 0.000000
vn 1.000000 -0.000397 0.000000
vn 1.000000 0.000397 0.000000
vn 1.000000 0.000039 0.000000
vn 1.000000 -0.000099 0.000000
vn 1.000000 -0.000051 0.000000
vn 1.000000 -0.000018 0.000000
vn 1.000000 0.000015 0.000000
vn 1.000000 0.000014 0.000000
vn 1.000000 0.000065 0.000000
vn 1.000000 -0.000058 0.000000
vn -1.000000 -0.000068 0.000000
vn -1.000000 0.000058 0.000000
vn -1.000000 0.000056 0.000000
vn -1.000000 -0.000083 0.000000
vn -1.000000 -0.000075 0.000000
vn -1.000000 0.000069 0.000000
vn -1.000000 -0.000397 0.000000
vn -1.000000 -0.000102 0.000000
vn -1.000000 0.000108 0.000000
vn -1.000000 0.000019 0.000000
vn -1.000000 -0.000062 0.000000
vn -1.000000 -0.000099 0.000000
vn -1.000000 0.000050 0.000000
s off
f 5//1 6//1 1//1
f 6//2 7//2 2//2
f 7//3 8//3 3//3
f 8//4 5//4 4//4
f 1//5 2//5 4//5
f 8//6 7//6 5//6
f 13//1 14//1 9//1
f 14//2 15//2 10//2
f 15//3 16//3 11//3
f 16//4 13//4 12//4
f 9//5 10//5 12//5
f 16//6 15//6 13//6
f 17//7 18//7 19//7
f 19//8 20//8 21//8
f 21//9 22//9 23//9
f 23//10 24//10 25//10
f 25//11 26//11 27//11
f 27//12 28//12 29//12
f 29//13 30//13 31//13
f 31//14 32//14 33//14
f 33//15 34//15 35//15
f 35//16 36//16 37//16
f 37//17 38//17 39//17
f 39//18 40//18 41//18
f 41//19 42//19 43//19
f 43//20 44//20 45//20
f 45//21 46//21 47//21
f 47//22 48//22 49//22
f 49//23 50//23 51//23
f 51//24 52//24 53//24
f 53//25 54//25 55//25
f 55//26 56//26 57//26
f 57//27 58//27 59//27
f 59//28 60//28 61//28
f 61//29 62//29 63//29
f 63//30 64//30 65//30
f 65//31 66//31 67//31
f 67//32 68//32 69//32
f 69//33 70//33 71//33
f 71//34 72//34 73//34
f 73//35 74//35 75//35
f 75//36 76//36 77//36
f 20//3 18//3 22//3
f 79//37 80//37 17//37
f 77//38 78//38 79//38
f 17//39 19//39 79//39
f 85//1 86//1 81//1
f 86//2 87//2 82//2
f 87//3 88//3 83//3
f 88//4 85//4 84//4
f 81//5 82//5 84//5
f 88//6 87//6 85//6
f 6//1 2//1 1//1
f 7//2 3//2 2//2
f 8//3 4//3 3//3
f 5//4 1//4 4//4
f 2//5 3//5 4//5
f 7//6 6//6 5//6
f 14//1 10//1 9//1
f 15//2 11//2 10//2
f 16//3 12//3 11//3
f 13//4 9//4 12//4
f 10//5 11//5 12//5
f 15//6 14//6 13//6
f 18//7 20//7 19//7
f 20//8 22//8 21//8
f 22//9 24//9 23//9
f 24//10 26//10 25//10
f 26//11 28//11 27//11
f 28//12 30//12 29//12
f 30//13 32//13 31//13
f 32//40 34//40 33//40
f 34//15 36//15 35//15
f 36//41 38//41 37//41
f 38//17 40//17 39//17
f 40//18 42//18 41//18
f 42//19 44//19 43//19
f 44//20 46//20 45//20
f 46//42 48//42 47//42
f 48//43 50//43 49//43
f 50//23 52//23 51//23
f 52//44 54//44 53//44
f 54//45 56//45 55//45
f 56//46 58//46 57//46
f 58//27 60//27 59//27
f 60//47 62//47 61//47
f 62//48 64//48 63//48
f 64//30 66//30 65//30
f 66//49 68//49 67//49
f 68//50 70//50 69//50
f 70//51 72//51 71//51
f 72//34 74//34 73//34
f 74//52 76//52 75//52
f 76//53 78//53 77//53
f 18//3 80//3 22//3
f 80//54 78//54 22//54
f 78//55 76//55 22//55
f 76//3 74//3 22//3
f 74//3 72//3 22//3
f 72//3 70//3 22//3
f 70//56 68//56 22//56
f 68//57 66//57 22//57
f 66//58 64//58 22//58
f 64//59 62//59 22//59
f 62//3 60//3 22//3
f 32//3 36//3 34//3
f 36//60 40//60 38//60
f 32//3 40//3 36//3
f 28//61 32//61 30//61
f 28//3 40//3 32//3
f 58//3 56//3 54//3
f 58//3 54//3 52//3
f 24//3 28//3 26//3
f 24//62 40//62 28//62
f 44//63 48//63 46//63
f 40//3 44//3 42//3
f 40//64 48//64 44//64
f 24//65 48//65 40//65
f 48//3 52//3 50//3
f 58//66 52//66 48//66
f 58//67 48//67 24//67
f 60//68 58//68 22//68
f 58//69 24//69 22//69
f 80//37 18//37 17//37
f 78//38 80//38 79//38
f 19//1 21//1 79//1
f 21//70 23//70 79//70
f 23//1 25//1 79//1
f 25//71 27//71 79//71
f 27//1 29//1 79//1
f 29//70 31//70 79//70
f 31//72 33//72 79//72
f 33//1 35//1 79//1
f 35//73 37//73 79//73
f 37//74 39//74 79//74
f 39//75 41//75 79//75
f 67//76 63//76 65//76
f 71//1 67//1 69//1
f 71//77 63//77 67//77
f 63//76 59//76 61//76
f 71//78 59//78 63//78
f 59//1 55//1 57//1
f 71//79 55//79 59//79
f 75//1 71//1 73//1
f 75//1 55//1 71//1
f 75//80 53//80 55//80
f 77//1 53//1 75//1
f 43//81 45//81 47//81
f 43//82 47//82 49//82
f 41//1 43//1 79//1
f 43//1 49//1 79//1
f 49//1 51//1 53//1
f 79//1 49//1 77//1
f 49//1 53//1 77//1
f 86//1 82//1 81//1
f 87//2 83//2 82//2
f 88//3 84//3 83//3
f 85//4 81//4 84//4
f 82//5 83//5 84//5
f 87//6 86//6 85//6
